PathFileType	3	(X/Y/Z)	F:\ViconData\AntennenMessung\Messung1\Session1\ID08.trc
DataRate	CameraRate	NumFrames	NumMarkers	Units	OrigDataRate	OrigDataStartFrame	OrigNumFrames
120.0	120.0	4	70	mm	120.0	621	1240	
Frame#	Time	Ashort			Along			Atop			A4			Bshort			Blong			Btop			B4			Cshort			Clong			Ctop			C4			Dshort			Dlong			Dtop			D4			Eshort			Elong			Etop			E4			Fshort			Flong			Ftop			F4			Gshort			Glong			Gtop			G4			Hshort			Hlong			Htop			H4			I1			I2			I3			I4			I5			WandAshort			WandAlong			WandAtop			WandA4			WandA15			WandBshort			WandB4			WandB5			WandBtop			WandBlong			WandCshort			WandClong			WandCtop			WandC4			WandC5			Acenter			Aantenna			Bcenter			Bantenna			Ccenter			Cantenna			Dcenter			Dantenna			Ecenter			Eantenna			Fcenter			Fantenna			Gcenter			Gantenna			Hcenter			Hantenna			Icenter			Iantenna			
		X1	Y1	Z1	X2	Y2	Z2	X3	Y3	Z3	X4	Y4	Z4	X5	Y5	Z5	X6	Y6	Z6	X7	Y7	Z7	X8	Y8	Z8	X9	Y9	Z9	X10	Y10	Z10	X11	Y11	Z11	X12	Y12	Z12	X13	Y13	Z13	X14	Y14	Z14	X15	Y15	Z15	X16	Y16	Z16	X17	Y17	Z17	X18	Y18	Z18	X19	Y19	Z19	X20	Y20	Z20	X21	Y21	Z21	X22	Y22	Z22	X23	Y23	Z23	X24	Y24	Z24	X25	Y25	Z25	X26	Y26	Z26	X27	Y27	Z27	X28	Y28	Z28	X29	Y29	Z29	X30	Y30	Z30	X31	Y31	Z31	X32	Y32	Z32	X33	Y33	Z33	X34	Y34	Z34	X35	Y35	Z35	X36	Y36	Z36	X37	Y37	Z37	X38	Y38	Z38	X39	Y39	Z39	X40	Y40	Z40	X41	Y41	Z41	X42	Y42	Z42	X43	Y43	Z43	X44	Y44	Z44	X45	Y45	Z45	X46	Y46	Z46	X47	Y47	Z47	X48	Y48	Z48	X49	Y49	Z49	X50	Y50	Z50	X51	Y51	Z51	X52	Y52	Z52	X53	Y53	Z53	X54	Y54	Z54	X55	Y55	Z55	X56	Y56	Z56	X57	Y57	Z57	X58	Y58	Z58	X59	Y59	Z59	X60	Y60	Z60	X61	Y61	Z61	X62	Y62	Z62	X63	Y63	Z63	X64	Y64	Z64	X65	Y65	Z65	X66	Y66	Z66	X67	Y67	Z67	X68	Y68	Z68	X69	Y69	Z69	X70	Y70	Z70	
621	5.1666667	-1038.2008	214.56535	-1644.1097	-1109.3394	203.91173	-1599.4036	-1063.6378	173.09357	-1625.8976	-1054.1102	262.13419	-1634.8217	-1352.7328	235.13631	1003.9251	-1281.3828	227.33696	1052.4088	-1322.7931	194.01547	1020.9303	-1284.406	287.86786	1052.8147	813.98425	187.63025	1209.5691	892.78174	179.16698	1178.5818	844.50641	145.51495	1198.2667	861.27618	292.51477	1168.5798	1115.9192	209.93568	-1401.761	1056.4014	193.96944	-1460.0398	1095.2257	162.34979	-1423.8884	1069.7731	238.79076	-1425.8406	-1204.6774	1686.1116	-1562.9385	-1129.179	1688.4172	-1606.488	-1173.0759	1724.332	-1581.9623	-1133.6522	1581.0513	-1603.5538	-1239.5942	1699.1211	1119.4225	-1309.4509	1698.9316	1071.9922	-1270.4314	1736.2489	1096.8689	-1245.5785	1592.7422	1110.6899	988.97357	1664.2969	1162.277	957.3595	1700.4601	1183.8469	922.09796	1662.2896	1214.884	939.85468	1659.3846	1159.8779	999.29584	1668.4622	-1579.2871	1059.0419	1670.2001	-1518.5793	1025.116	1708.0446	-1551.0649	1059.4092	1672.1594	-1585.3323	393.0105	1170.2205	-32.903076	395.60089	1172.3948	-116.89891	396.33792	1208.4493	-69.437805	427.01855	1169.4434	-69.164589	346.56091	1174.6526	-71.029594																																														-1068.6045	210.01212	-1625.0028	-1073.8029	248.65277	-1624.0665	-1321.5255	231.72499	1025.131	-1320.2234	270.46365	1029.4463	847.84705	183.99319	1196.2524	851.2157	222.79431	1194.2213	1088.7738	202.65364	-1428.3413	1082.6455	240.93623	-1432.5707	-1171.8788	1687.113	-1581.8574	-1170.6251	1648.1334	-1581.7478	-1271.1134	1699.0356	1098.0219	-1271.8276	1660.0609	1099.2296	952.75433	1705.7277	1186.9889	972.6676	1733.9437	1168.8693	1026.6642	1669.2582	-1551.4781	1028.2195	1630.2915	-1551.8932	394.16898	1171.1929	-70.469055	391.90326	1132.2737	-71.546341
622	5.175	-1038.2091	214.47375	-1644.066	-1109.3575	203.8407	-1599.3926	-1063.5242	172.88458	-1625.8052	-1054.1053	262.08173	-1634.9049	-1352.8079	235.15646	1003.7897	-1281.3702	227.32585	1052.3538	-1322.7791	193.96962	1020.9299	-1284.3719	287.89365	1052.7676	814.04242	187.86784	1209.5791	892.89246	179.283	1178.6194	844.51697	145.43985	1198.3396	861.3429	292.76334	1168.7163	1115.9137	209.92664	-1401.7604	1056.3588	194.0139	-1460.1089	1095.1844	162.26874	-1423.8286	1069.8257	238.85307	-1425.8728	-1204.6873	1686.1226	-1562.9425	-1129.1134	1688.2448	-1605.9434	-1173.0677	1724.3341	-1581.9609	-1133.6436	1581.0676	-1603.5518	-1239.5786	1699.0903	1119.422	-1309.4055	1698.8976	1071.9698	-1270.4292	1736.2699	1096.8796	-1245.6393	1592.8739	1110.7104	988.98004	1664.3123	1162.2803	957.3819	1700.4696	1183.8616	922.68256	1662.1896	1215.0426	939.82294	1659.4227	1159.8732	999.30334	1668.442	-1579.2854	1059.0559	1670.204	-1518.5908	1025.1294	1708.0431	-1551.0647	1059.4208	1672.1559	-1585.3331	393.01404	1170.2211	-32.900627	395.60565	1172.3887	-116.90737	396.35184	1208.4598	-69.443291	427.08896	1169.3667	-69.162323	346.56085	1174.6501	-71.012039																																														-1068.5612	209.93765	-1625.0081	-1073.8136	248.57343	-1624.1772	-1321.4708	231.72147	1025.0929	-1320.1284	270.46353	1029.365	847.92438	184.17892	1196.2758	851.33673	222.97435	1194.2089	1088.7958	202.68088	-1428.3289	1082.7424	240.97153	-1432.593	-1171.8351	1687.0449	-1581.6349	-1170.5468	1648.0677	-1581.2943	-1271.092	1699.0033	1098.0063	-1271.7853	1660.0272	1099.1848	952.98956	1705.4955	1186.8616	972.72174	1733.691	1168.5134	1026.6859	1669.2493	-1551.4708	1028.2495	1630.2828	-1551.8789	394.17313	1171.1906	-70.472153	391.89795	1132.2717	-71.546555
623	5.1833333	-1038.2174	214.46234	-1644.0677	-1109.3861	203.86411	-1599.3881	-1063.5474	172.89116	-1625.8098	-1054.1226	262.15918	-1634.8632	-1352.72	235.14558	1003.8768	-1281.4454	227.2003	1052.4357	-1322.85	193.94601	1020.9915	-1284.4198	287.8721	1052.8208	814.13605	187.74156	1209.5709	892.3009	178.4614	1179.1383	844.53577	145.42625	1198.2727	861.29529	292.61832	1168.5841	1115.9161	209.9485	-1401.7625	1056.3774	193.97321	-1460.0328	1095.2927	162.45238	-1423.8375	1069.7941	238.82892	-1425.8663	-1204.671	1686.1133	-1562.9551	-1129.1589	1688.2466	-1605.9368	-1173.0769	1724.3271	-1581.9554	-1133.6002	1581.0503	-1603.5355	-1239.6298	1699.1595	1119.4399	-1309.3842	1698.8379	1071.9633	-1270.4298	1736.2659	1096.8778	-1245.6644	1592.916	1110.7203	988.91571	1664.235	1162.2664	957.38855	1700.5128	1183.8562	922.01404	1662.3027	1214.8708	939.83582	1659.3931	1159.9067	999.29755	1668.4769	-1579.3157	1059.0477	1670.2001	-1518.5807	1025.1273	1708.0481	-1551.0631	1059.4231	1672.1576	-1585.3323	393.01196	1170.2351	-32.916355	395.59451	1172.3947	-116.89239	396.34772	1208.4506	-69.450966	427.03082	1169.4514	-69.165825	346.56094	1174.6486	-71.011475																																														-1068.5659	209.94289	-1625.0148	-1073.7994	248.58125	-1624.1858	-1321.4839	231.66356	1025.1577	-1320.0808	270.40271	1029.4368	848.2984	183.68561	1196.2701	852.11035	222.4458	1194.2413	1088.8341	202.68188	-1428.2676	1082.6882	240.96318	-1432.483	-1171.844	1687.0405	-1581.6403	-1170.5552	1648.0634	-1581.3108	-1271.056	1699.0145	1098.0503	-1271.7112	1660.0393	1099.277	952.86108	1705.7224	1186.9567	972.86713	1733.8828	1168.8527	1026.6757	1669.2665	-1551.486	1028.2316	1630.2998	-1551.9111	394.16699	1171.201	-70.475891	391.88858	1132.2822	-71.546745
624	5.1916667	-1038.1945	214.5434	-1644.1121	-1109.3536	203.97273	-1599.4349	-1063.6268	173.07524	-1625.853	-1054.1173	262.12933	-1634.8252	-1352.8323	235.07555	1003.9335	-1281.3004	227.38255	1052.3457	-1322.8258	193.95578	1021.0015	-1284.3754	287.91058	1052.8156	814.0249	187.84758	1209.5107	892.73254	179.14479	1178.6989	844.59576	145.47652	1198.3541	861.24188	292.70068	1168.7076	1115.9204	209.9398	-1401.759	1056.3988	194.03159	-1460.1113	1095.2499	162.36328	-1423.835	1069.7766	238.84525	-1425.866	-1204.6752	1686.1215	-1562.9568	-1129.1547	1688.236	-1605.9331	-1173.0757	1724.3314	-1581.9507	-1133.6067	1581.0787	-1603.5521	-1239.6021	1699.1293	1119.4308	-1309.3845	1698.8563	1071.9574	-1270.442	1736.2849	1096.8861	-1245.6458	1592.8944	1110.7295	988.88965	1664.2166	1162.2664	957.38422	1700.5148	1183.7816	922.2196	1662.2362	1214.9338	939.85748	1659.4194	1159.9181	999.30774	1668.4561	-1579.2849	1059.0616	1670.1963	-1518.594	1025.1462	1708.0496	-1551.0647	1059.4152	1672.189	-1585.4424	392.99344	1170.2275	-32.893124	395.59467	1172.3895	-116.89838	396.33472	1208.4554	-69.434181	427.04129	1169.4697	-69.167458	346.54944	1174.642	-71.011703																																														-1068.5959	210.02727	-1625.0245	-1073.7922	248.66982	-1624.1582	-1321.545	231.71069	1025.1085	-1320.2305	270.45993	1029.3239	848.02246	184.08842	1196.2015	851.46478	222.87598	1194.0393	1088.8466	202.70383	-1428.301	1082.7687	240.99339	-1432.5399	-1171.8521	1687.0404	-1581.6354	-1170.5731	1648.0629	-1581.3059	-1271.0697	1699.0061	1098.0231	-1271.726	1660.0298	1099.2119	952.96838	1705.6023	1186.7971	972.90588	1733.7211	1168.5533	1026.6904	1669.2534	-1551.4727	1028.2415	1630.2865	-1551.8824	394.15671	1171.1943	-70.460587	391.88184	1132.2755	-71.532661
